<?xml version="1.0" encoding="UTF-8" standalone="no"?>
<svg
   width="256"
   height="256"
   version="1.1"
   id="svg1038"
   sodipodi:docname="NewTux.svg"
   inkscape:version="1.1 (c4e8f9ed74, 2021-05-24)"
   xmlns:inkscape="http://www.inkscape.org/namespaces/inkscape"
   xmlns:sodipodi="http://sodipodi.sourceforge.net/DTD/sodipodi-0.dtd"
   xmlns:xlink="http://www.w3.org/1999/xlink"
   xmlns="http://www.w3.org/2000/svg"
   xmlns:svg="http://www.w3.org/2000/svg">
  <sodipodi:namedview
     id="namedview1040"
     pagecolor="#575757"
     bordercolor="#666666"
     borderopacity="1.0"
     inkscape:pageshadow="2"
     inkscape:pageopacity="0"
     inkscape:pagecheckerboard="0"
     inkscape:document-units="pt"
     showgrid="false"
     units="px"
     inkscape:zoom="0.99125"
     inkscape:cx="-36.822194"
     inkscape:cy="209.33165"
     inkscape:window-width="1920"
     inkscape:window-height="1008"
     inkscape:window-x="0"
     inkscape:window-y="0"
     inkscape:window-maximized="1"
     inkscape:current-layer="svg1038" />
  <defs
     id="defs1007">
    <linearGradient
       id="linearGradient172">
      <stop
         style="stop-color:#3f2600;stop-opacity:0.6;"
         offset="0"
         id="stop173" />
      <stop
         style="stop-color:#3f2600;stop-opacity:0;"
         offset="1"
         id="stop174" />
    </linearGradient>
    <linearGradient
       id="linearGradient167">
      <stop
         style="stop-color:#ffffff;stop-opacity:0.65;"
         offset="0"
         id="stop168" />
      <stop
         style="stop-color:#ffffff;stop-opacity:0;"
         offset="1"
         id="stop169" />
    </linearGradient>
    <linearGradient
       id="linearGradient162">
      <stop
         style="stop-color:#ffa63f;stop-opacity:1;"
         offset="0"
         id="stop163" />
      <stop
         style="stop-color:#ffff00;stop-opacity:1;"
         offset="1"
         id="stop164" />
    </linearGradient>
    <linearGradient
       id="linearGradient153">
      <stop
         style="stop-color:#ffeed7;stop-opacity:1;"
         offset="0"
         id="stop154" />
      <stop
         style="stop-color:#bdbfc2;stop-opacity:1;"
         offset="1"
         id="stop155" />
    </linearGradient>
    <linearGradient
       id="linearGradient138">
      <stop
         style="stop-color:#ffffff;stop-opacity:0.8;"
         offset="0"
         id="stop139" />
      <stop
         style="stop-color:#ffffff;stop-opacity:0;"
         offset="1"
         id="stop140" />
    </linearGradient>
    <linearGradient
       xlink:href="#linearGradient138"
       id="linearGradient141"
       x1="0.47424799"
       y1="0.020191999"
       x2="0.417539"
       y2="0.90125799"
       gradientUnits="objectBoundingBox" />
    <linearGradient
       xlink:href="#linearGradient167"
       id="linearGradient142"
       x1="0.55880702"
       y1="0.031192999"
       x2="0.553922"
       y2="0.94531101"
       gradientUnits="objectBoundingBox" />
    <linearGradient
       xlink:href="#linearGradient167"
       id="linearGradient143"
       x1="0.46557701"
       y1="0.028819799"
       x2="0.41365999"
       y2="0.93366498"
       gradientUnits="objectBoundingBox" />
    <linearGradient
       xlink:href="#linearGradient167"
       id="linearGradient144"
       x1="0.70346397"
       y1="0.059404202"
       x2="0.64553201"
       y2="0.94063401"
       gradientUnits="objectBoundingBox" />
    <linearGradient
       xlink:href="#linearGradient167"
       id="linearGradient145"
       x1="0.46741399"
       y1="-0.036155298"
       x2="0.86741799"
       y2="0.75857902"
       gradientUnits="objectBoundingBox" />
    <linearGradient
       xlink:href="#linearGradient167"
       id="linearGradient146"
       x1="0.57152498"
       y1="0.023441499"
       x2="0.57143003"
       y2="0.71875"
       gradientUnits="objectBoundingBox" />
    <linearGradient
       xlink:href="#linearGradient167"
       id="linearGradient147"
       x1="0.5"
       y1="0.0234362"
       x2="0.5"
       y2="0.8125"
       gradientUnits="objectBoundingBox" />
    <linearGradient
       xlink:href="#linearGradient167"
       id="linearGradient148"
       x1="0.50799799"
       y1="0.37435901"
       x2="0.51599997"
       y2="0.92820501"
       gradientUnits="objectBoundingBox" />
    <linearGradient
       xlink:href="#linearGradient138"
       id="linearGradient149"
       x1="0.5"
       y1="0.131707"
       x2="0.50400001"
       y2="0.94634098"
       gradientUnits="objectBoundingBox" />
    <linearGradient
       xlink:href="#linearGradient167"
       id="linearGradient150"
       x1="-0.30509499"
       y1="0.099496603"
       x2="0.156323"
       y2="0.94191301"
       gradientUnits="objectBoundingBox"
       gradientTransform="matrix(-0.928523,0.283938,0.435332,0.943857,-1.91327e-7,5.49908e-8)" />
    <linearGradient
       xlink:href="#linearGradient167"
       id="linearGradient151"
       x1="0.433979"
       y1="0.022184599"
       x2="0.487055"
       y2="1.02569"
       gradientUnits="objectBoundingBox" />
    <linearGradient
       xlink:href="#linearGradient153"
       id="linearGradient152"
       x1="0.5"
       y1="0.89842999"
       x2="0.5"
       y2="0.40625"
       gradientUnits="objectBoundingBox"
       spreadMethod="reflect" />
    <linearGradient
       xlink:href="#linearGradient153"
       id="linearGradient156"
       x1="0.43568701"
       y1="0.98882002"
       x2="0.453989"
       y2="0.23093501"
       gradientUnits="objectBoundingBox" />
    <linearGradient
       xlink:href="#linearGradient153"
       id="linearGradient157"
       x1="0.49180499"
       y1="1.15284"
       x2="0.49482101"
       y2="0.41252401"
       gradientUnits="objectBoundingBox" />
    <linearGradient
       xlink:href="#linearGradient153"
       id="linearGradient158"
       x1="0.51730198"
       y1="0.85418499"
       x2="0.49843901"
       y2="0.136172"
       gradientUnits="objectBoundingBox" />
    <linearGradient
       xlink:href="#linearGradient153"
       id="linearGradient159"
       x1="0.46201"
       y1="0.87917101"
       x2="0.49215299"
       y2="0.096282303"
       gradientUnits="objectBoundingBox" />
    <linearGradient
       xlink:href="#linearGradient162"
       id="linearGradient161"
       x1="0.50086302"
       y1="0.34872901"
       x2="0.41209599"
       y2="0.98558098"
       gradientUnits="objectBoundingBox" />
    <linearGradient
       xlink:href="#linearGradient162"
       id="linearGradient165"
       x1="0.60399801"
       y1="0.51020199"
       x2="0.46399999"
       y2="0.98367399"
       gradientUnits="objectBoundingBox" />
    <linearGradient
       xlink:href="#linearGradient162"
       id="linearGradient166"
       x1="0.50000501"
       y1="0.191616"
       x2="0.50800002"
       y2="0.97005898"
       gradientUnits="objectBoundingBox" />
    <radialGradient
       xlink:href="#linearGradient172"
       id="radialGradient171"
       cx="0.5"
       cy="0.5"
       fx="0.5"
       fy="0.5"
       r="0.5"
       gradientUnits="objectBoundingBox" />
    <radialGradient
       xlink:href="#linearGradient172"
       id="radialGradient176" />
    <linearGradient
       xlink:href="#linearGradient153"
       id="linearGradient178"
       x1="0.94027299"
       y1="1.2934099"
       x2="0.19452"
       y2="-0.675295"
       gradientUnits="objectBoundingBox" />
    <radialGradient
       xlink:href="#linearGradient172"
       id="radialGradient1399"
       gradientTransform="matrix(1.4818268,0,0,0.39679691,-349.5468,157.94132)"
       cx="446.77762"
       cy="1219.4125"
       fx="446.77762"
       fy="1219.4125"
       r="195.07191"
       gradientUnits="userSpaceOnUse" />
    <linearGradient
       xlink:href="#linearGradient153"
       id="linearGradient1401"
       gradientUnits="userSpaceOnUse"
       x1="400.57785"
       y1="369.53015"
       x2="400.84448"
       y2="304.07886"
       gradientTransform="matrix(-0.96493873,-0.01291555,-0.03671998,2.5569228,862.8276,-357.26968)" />
    <linearGradient
       xlink:href="#linearGradient138"
       id="linearGradient1403"
       gradientUnits="userSpaceOnUse"
       x1="303.01761"
       y1="237.93179"
       x2="297.0856"
       y2="330.09561"
       gradientTransform="matrix(1.4132361,-0.0796503,-0.04119768,1.0713842,-108.6094,-190.01368)" />
    <linearGradient
       xlink:href="#linearGradient153"
       id="linearGradient1405"
       gradientUnits="userSpaceOnUse"
       gradientTransform="matrix(1.0650795,-0.06167214,0.0944585,1.6443046,-165.9954,-241.86968)"
       x1="378.93771"
       y1="278.60202"
       x2="380.27319"
       y2="243.91606" />
    <linearGradient
       xlink:href="#linearGradient153"
       id="linearGradient1407"
       gradientUnits="userSpaceOnUse"
       x1="381.38742"
       y1="277.495"
       x2="380.5517"
       y2="245.68338"
       gradientTransform="matrix(-1.4785291,0.04042534,0.03886407,1.9024316,896.7076,-349.02968)" />
    <linearGradient
       xlink:href="#linearGradient167"
       id="linearGradient1409"
       gradientUnits="userSpaceOnUse"
       gradientTransform="matrix(-0.39218229,-0.02976458,-0.05731006,0.58249559,502.7436,22.75972)"
       x1="379.09573"
       y1="240.92712"
       x2="376.79556"
       y2="281.01636" />
    <linearGradient
       xlink:href="#linearGradient167"
       id="linearGradient1411"
       gradientUnits="userSpaceOnUse"
       x1="389.63535"
       y1="242.28218"
       x2="387.06866"
       y2="281.32513"
       gradientTransform="matrix(0.29141594,-0.03333031,0.05061034,0.48811437,138.5816,50.73832)" />
    <linearGradient
       xlink:href="#linearGradient153"
       id="linearGradient1413"
       gradientUnits="userSpaceOnUse"
       spreadMethod="reflect"
       x1="437.57941"
       y1="528.87177"
       x2="437.57941"
       y2="394.10361"
       gradientTransform="matrix(1.0160687,0,0,1.53779,-125.2984,-232.48268)" />
    <linearGradient
       xlink:href="#linearGradient153"
       id="linearGradient1415"
       gradientUnits="userSpaceOnUse"
       x1="375.17325"
       y1="419.78485"
       x2="377.48541"
       y2="324.03815"
       gradientTransform="matrix(0.9027839,-0.07217411,0.15730007,2.0039596,-202.3394,-230.19068)" />
    <linearGradient
       xlink:href="#linearGradient138"
       id="linearGradient1417"
       gradientUnits="userSpaceOnUse"
       x1="320.75104"
       y1="498.17776"
       x2="321.32224"
       y2="614.50439"
       gradientTransform="matrix(1.3994837,0,0,1.1399824,-140.7104,-217.80968)" />
    <linearGradient
       xlink:href="#linearGradient167"
       id="linearGradient1419"
       gradientUnits="userSpaceOnUse"
       x1="322.48257"
       y1="435.26761"
       x2="323.2514"
       y2="488.48251"
       gradientTransform="matrix(1.2781848,0,0,0.99078805,-100.1294,-164.33068)" />
    <linearGradient
       xlink:href="#linearGradient167"
       id="linearGradient1421"
       gradientUnits="userSpaceOnUse"
       x1="411.2215"
       y1="242.94365"
       x2="411.2215"
       y2="331.44858"
       gradientTransform="matrix(0.71463375,0,0,2.1864338,-125.2984,-231.75768)" />
    <linearGradient
       xlink:href="#linearGradient167"
       id="linearGradient1423"
       gradientUnits="userSpaceOnUse"
       x1="867.34546"
       y1="234.73897"
       x2="867.33453"
       y2="314.83911"
       gradientTransform="matrix(0.71583375,0,0,2.1827675,-125.2984,-231.75768)" />
    <linearGradient
       xlink:href="#linearGradient162"
       id="linearGradient1425"
       gradientUnits="userSpaceOnUse"
       x1="236.25362"
       y1="657.11133"
       x2="212.5099"
       y2="737.41229"
       gradientTransform="matrix(1.2643925,0,0,1.2357712,-125.2984,-231.75768)" />
    <linearGradient
       xlink:href="#linearGradient153"
       id="linearGradient1427"
       gradientUnits="userSpaceOnUse"
       x1="381.56607"
       y1="655.73102"
       x2="279.64313"
       y2="386.66583"
       gradientTransform="matrix(0.63738789,0.28617598,-0.22489266,0.57927107,389.8156,76.21132)" />
    <linearGradient
       xlink:href="#linearGradient162"
       id="linearGradient1429"
       gradientUnits="userSpaceOnUse"
       x1="218.11714"
       y1="630.30475"
       x2="203.12654"
       y2="737.8537"
       gradientTransform="matrix(-1.1800109,0.4273134,0.47064661,1.1534176,417.5906,-278.07368)" />
    <linearGradient
       xlink:href="#linearGradient167"
       id="linearGradient1431"
       gradientUnits="userSpaceOnUse"
       gradientTransform="matrix(-0.95239592,0.34640009,0.42082546,0.94872982,403.5756,-128.59468)"
       x1="117.88966"
       y1="587.23602"
       x2="182.24524"
       y2="704.73077" />
    <linearGradient
       xlink:href="#linearGradient167"
       id="linearGradient1433"
       gradientUnits="userSpaceOnUse"
       x1="223.10072"
       y1="570.41809"
       x2="230.53499"
       y2="710.97723"
       gradientTransform="matrix(1.0038119,-0.05226007,-0.01740863,1.0462687,-66.5614,-92.71798)" />
    <linearGradient
       xlink:href="#linearGradient167"
       id="linearGradient1435"
       gradientUnits="userSpaceOnUse"
       x1="316.93988"
       y1="474.01779"
       x2="371.60889"
       y2="582.63507"
       gradientTransform="matrix(0.37423628,0.15925268,-0.12093484,0.32235493,413.7696,254.03832)" />
    <linearGradient
       xlink:href="#linearGradient162"
       id="linearGradient1437"
       gradientUnits="userSpaceOnUse"
       x1="284.68652"
       y1="410.46326"
       x2="285.45923"
       y2="485.69934"
       gradientTransform="matrix(1.523355,0,0,1.0256962,-125.2984,-231.75768)" />
    <linearGradient
       xlink:href="#linearGradient167"
       id="linearGradient1439"
       gradientUnits="userSpaceOnUse"
       x1="288.82358"
       y1="398.85422"
       x2="288.37628"
       y2="482.55939"
       gradientTransform="matrix(0.76723842,0,0,0.48747518,81.6136,-12.43538)" />
  </defs>
  <path
     id="path106"
     style="fill:#000000;stroke:none;stroke-width:0.606407"
     d="m 132.39292,0.0067414 c -1.33849,0.0209 -2.72267,0.0874 -4.15388,0.20163 -45.217573,3.63941 -33.228093,51.4061996 -33.901933,67.4051556 -0.99014,14.03371 -4.19403,24.48631 -16.75199,39.485423 -1.73167,2.13624 -3.32304,4.3706 -4.80426,6.67199 -12.2638,17.26157 -24.68969,40.7298 -21.5373,61.30698 -0.46773,0.40863 -0.91996,0.83213 -1.3394,1.28028 -2.75159,2.93994 -4.79964,6.52746 -7.10633,8.96951 -2.18049,2.17326 -5.26135,2.98768 -8.59506,4.18345 -3.33689,1.19692 -6.94974,2.93839 -9.14916,7.17379 -1.98486,3.69906 -1.40195,7.99862 -0.78605,12.01671 0.61664,4.02294 1.25868,7.85233 0.4025,10.50297 -2.63459,7.20286 -2.95394,12.14991 -1.12943,15.70442 1.82949,3.56425 5.60041,5.14882 9.91778,6.04967 8.63474,1.8017 20.41657,1.34425 29.73744,6.2801 l 0.004,0.002 0.003,0.002 c 9.88405,5.16628 19.89615,6.99205 27.85302,5.17492 5.793586,-1.32309 10.462083,-4.77047 12.847483,-10.08303 6.31667,0.0232 13.2128,-2.60657 24.33587,-3.21547 7.50423,-0.60827 16.91772,2.58763 27.71582,1.95415 0.28023,1.20588 0.69185,2.36321 1.26663,3.45728 4.13098,8.27657 11.78584,12.04378 19.97581,11.39817 8.1967,-0.64614 16.94033,-5.4844 24.01371,-13.89733 l 0.005,-0.005 0.005,-0.005 c 6.81243,-8.26128 18.07734,-11.67004 25.48425,-16.13725 3.70346,-2.2336 6.66008,-4.99346 6.8903,-8.99225 0.23011,-3.99697 -2.12683,-8.53817 -7.6195,-14.64018 -1.86804,-2.10221 -2.72684,-5.92931 -3.65588,-9.96933 -0.92856,-4.03796 -1.96571,-8.35281 -5.22723,-11.12302 -1.41798,-1.23708 -2.89316,-2.03397 -4.37598,-2.5507 8.58783,-25.16436 -4.73575,-50.08579 -17.44329,-67.18154 C 185.04452,96.534827 171.10535,85.159507 171.31624,65.688997 171.57143,42.512661 173.8874,-0.6400286 132.39401,0.0075614 Z m 7.05782,35.5089096 a 16.359995,12.715502 89.433792 0 1 12.17741,15.9955 16.359995,12.715502 89.433792 0 1 -4.10007,12.228946 c -0.25929,-0.12151 -0.51757,-0.24354 -0.79363,-0.35702 -2.33127,-0.99777 -4.02383,-1.59 -5.50163,-2.10196 a 5.7768255,8.9814395 2.00318 0 0 2.34604,-7.00779 5.7768255,8.9814395 2.00318 0 0 -5.98221,-8.974816 5.7768255,8.9814395 2.00318 0 0 -5.57515,8.949806 5.7768255,8.9814395 2.00318 0 0 0.33276,2.70382 c -2.07545,-1.04971 -4.02959,-1.76779 -5.86243,-2.21339 a 16.359995,12.715502 89.433792 0 1 -0.28653,-2.532506 16.359995,12.715502 89.433792 0 1 13.24544,-16.69059 z m -31.76662,2.47566 a 14.16007,9.1722599 86.731112 0 1 9.34245,13.61687 14.16007,9.1722599 86.731112 0 1 -0.13796,3.231386 c -0.25258,0.0742 -0.51174,0.14032 -0.75573,0.22436 -1.69267,0.58309 -3.16623,1.38906 -4.45406,2.25281 a 7.4684367,4.2014061 85.064337 0 0 0.11219,-3.01612 7.4684367,4.2014061 85.064337 0 0 -4.34642,-6.931226 7.4684367,4.2014061 85.064337 0 0 -3.9985,7.946196 7.4684367,4.2014061 85.064337 0 0 3.17075,6.31498 c -0.0403,0.0386 -0.10303,0.10052 -0.14175,0.13719 0.0129,-0.0122 -0.62101,0.47717 -1.72826,1.2871 -0.27369,0.2002 -0.93394,0.69359 -1.27876,0.94675 a 14.16007,9.1722599 86.731112 0 1 -4.755737,-11.332976 14.16007,9.1722599 86.731112 0 1 8.971787,-14.67732 z m 13.80257,17.944336 c 0.25129,-0.005 0.5062,-0.004 0.76483,0.003 3.44854,0.0954 7.55741,1.3016 12.47531,4.46315 3.15426,2.05119 5.62223,2.22594 11.30191,4.65796 l 0.006,0.002 0.006,0.003 c 2.73507,1.12384 4.34892,2.59207 5.1393,4.14631 0.79038,1.55424 0.80912,3.24327 0.15008,5.01119 -1.31808,3.53585 -5.51232,7.23647 -11.39741,9.07488 l -0.005,0.002 -0.005,0.002 c -2.84954,0.92416 -5.34756,2.97397 -8.29717,4.65872 -2.94942,1.68467 -6.29494,3.04749 -10.83724,2.78872 -3.86722,-0.22579 -6.18512,-1.54404 -8.27291,-3.22457 -2.08778,-1.68053 -3.90065,-3.78308 -6.55147,-5.33866 l -0.007,-0.004 -0.006,-0.004 c -4.29522,-2.42421 -6.647117,-5.23148 -7.387547,-7.67862 -0.74044,-2.44715 -0.0405,-4.55101 2.101187,-6.15731 2.38945,-1.79195 4.04933,-3.0084 5.15522,-3.81733 1.10589,-0.80893 1.56987,-1.11756 1.90488,-1.43491 1.79145,-1.69695 4.66415,-4.81183 8.99908,-6.30511 1.42239,-0.48999 3.00279,-0.81336 4.7618,-0.84821 z m 25.01732,15.0639 c -1.40459,0.0826 -2.98577,0.83812 -4.83382,1.86925 -1.84805,1.03113 -3.94333,2.36081 -6.22098,3.67483 -4.5553,2.62802 -9.83033,5.17189 -15.13819,5.17189 -5.31303,0 -9.55133,-2.45198 -12.70346,-4.94601 -1.57607,-1.24701 -2.87261,-2.49945 -3.89692,-3.45727 -0.51216,-0.47892 -0.95402,-0.88367 -1.34926,-1.1878 -0.39524,-0.30414 -0.714,-0.56169 -1.22873,-0.56169 v 1.21281 c -0.0917,0 0.16257,0.0589 0.48891,0.31003 0.32635,0.25112 0.75479,0.63981 1.26057,1.11276 1.01156,0.94589 2.34147,2.23118 3.97348,3.52246 3.26402,2.58256 7.76921,5.20752 13.45541,5.20752 5.69139,0 11.13319,-2.67415 15.74384,-5.3341 2.30533,-1.32998 4.40512,-2.66178 6.20582,-3.66649 1.8007,-1.00471 3.32193,-1.6593 4.31458,-1.71765 z m 5.1249,6.49689 c 3.82918,15.21185 12.81245,37.227323 18.60077,47.976643 3.05951,5.68195 9.10269,17.76619 11.7173,32.31618 0.0821,-0.003 0.16115,-0.0113 0.24407,-0.0129 1.71278,-0.0327 3.60487,0.24852 5.62518,0.78909 -0.10697,-0.0286 -0.21669,-0.0631 -0.32291,-0.0902 6.88281,-17.85266 -5.82605,-37.08026 -11.64452,-42.43636 -2.19333,-2.12691 -2.44033,-3.15948 -1.51905,-3.25034 0.13161,-0.013 0.28686,-0.007 0.4639,0.0182 0.0755,0.0107 0.17838,0.0462 0.26151,0.0637 9.27221,8.35943 22.33131,28.26158 17.58353,47.37629 -0.4603,-0.19466 -0.9157,-0.37784 -1.36669,-0.55107 1.06922,0.41037 2.16335,0.87684 3.28217,1.40611 11.14526,5.42833 15.11453,10.17424 13.04003,16.64587 -0.59356,-0.0172 -1.18151,-0.0215 -1.75479,-0.008 -0.0857,0.002 -0.16492,0.006 -0.25014,0.008 0.0703,-0.20751 0.13245,-0.41386 0.18571,-0.61702 1.3e-4,-5.1e-4 -1.4e-4,-9.9e-4 0,-0.002 1.2695,-4.84833 -2.32613,-8.49101 -11.51491,-12.65268 -9.79707,-4.30968 -17.60878,-3.87583 -18.93278,4.86111 -0.0981,0.53361 -0.17209,1.07986 -0.22589,1.63351 -0.69467,0.24672 -1.392,0.53542 -2.09286,0.9187 -4.54731,2.48686 -7.03194,6.99922 -8.42224,12.5784 -1.38922,5.57486 -1.79031,12.33829 -2.17548,19.9432 -0.234,3.79653 -1.76004,8.86371 -3.3269,14.23313 -16.23402,11.70163 -38.92787,16.77562 -58.08468,3.28521 -1.186787,-1.82843 -2.500367,-3.64521 -3.869637,-5.43871 -1.0872,-1.42405 -2.208546,-2.83353 -3.317796,-4.22438 0.77465,0.0179 1.51678,9.4e-4 2.195196,-0.0788 0.12164,-0.0143 0.23319,-0.038 0.35171,-0.0553 0.69,-0.10087 1.3343,-0.24478 1.91625,-0.4442 0.10837,-0.0371 0.20698,-0.0831 0.31154,-0.12355 0.55523,-0.21476 1.06292,-0.46991 1.508427,-0.77393 0.0847,-0.0578 0.16113,-0.12181 0.24181,-0.18268 0.42389,-0.32011 0.7971,-0.67801 1.10745,-1.08016 0.059,-0.0764 0.11115,-0.15727 0.16601,-0.2365 0.28852,-0.41738 0.52275,-0.87124 0.69357,-1.36366 0.0322,-0.0926 0.0592,-0.18833 0.0872,-0.28349 0.14879,-0.50786 0.23992,-1.04963 0.26606,-1.62593 0.005,-0.10487 0.006,-0.21134 0.007,-0.31836 0.003,-0.59495 -0.0565,-1.22222 -0.18268,-1.87986 -0.0205,-0.10695 -0.042,-0.21437 -0.066,-0.32292 -0.14952,-0.67543 -0.36835,-1.38115 -0.65492,-2.11332 -0.0446,-0.11399 -0.0885,-0.22735 -0.13644,-0.34262 -0.31211,-0.7496 -0.69828,-1.52707 -1.15521,-2.32709 -0.0625,-0.1094 -0.12202,-0.21794 -0.18722,-0.32822 -0.486097,-0.82165 -1.052437,-1.66803 -1.693397,-2.53402 -0.0747,-0.10102 -0.1452,-0.20088 -0.22209,-0.30244 -0.66931,-0.8839 -1.42533,-1.79008 -2.25887,-2.7114 -0.0863,-0.0954 -0.16735,-0.18925 -0.25545,-0.28501 -0.865816,-0.94111 -1.823016,-1.90006 -2.863746,-2.87134 -0.0852,-0.0795 -0.1638,-0.15836 -0.25015,-0.23801 -1.0813,-0.99743 -2.25926,-2.00815 -3.52928,-3.02825 -0.0707,-0.0568 -0.13568,-0.11297 -0.20694,-0.16979 -1.31102,-1.04531 -2.72544,-2.09977 -4.23954,-3.15938 -0.0506,-0.0354 -0.0969,-0.0707 -0.14781,-0.10612 -1.56896,-1.09336 -3.24395,-2.19206 -5.0347,-3.29052 -26.11203,-16.25224 -8.52906,-46.80409 0.42752,-61.4798 0.57965,-0.64774 1.02678,-1.05597 1.24844,-1.08016 0.62372,-0.0681 -0.43275,2.72149 -4.64887,10.55678 -4.2733,8.08818 -12.23845,26.76079 -1.23631,41.30768 0.27922,-10.36787 2.70904,-20.94047 6.86604,-30.83048 6.05771,-13.73461 18.699963,-37.55927 19.644543,-56.501213 0.93818,0.7266 1.99277,1.42989 3.17682,2.09817 l -0.0136,-0.008 c 2.33579,1.37071 4.08038,3.37433 6.33241,5.18706 2.25202,1.81273 5.05672,3.37509 9.30758,3.62328 h 7.6e-4 c 4.96235,0.2829 8.7407,-1.25273 11.84389,-3.02522 3.10318,-1.77248 5.58662,-3.73943 7.95605,-4.50787 4.97723,-1.55673 8.91638,-4.32252 11.14425,-7.53461 z m 36.51933,81.161503 c 0.9215,0.25805 1.86876,0.57011 2.84026,0.93462 -0.97165,-0.36491 -1.91866,-0.67636 -2.84026,-0.93462 z m -13.11051,15.62028 c 0.36253,6.6323 3.62071,13.44219 9.42583,14.907 6.38389,1.67586 15.62085,-3.89714 19.3603,-8.33431 0.7072,-0.0291 1.41181,-0.0631 2.08907,-0.0796 3.37454,-0.082 6.2654,0.1175 9.19616,2.68032 l 0.008,0.007 0.009,0.008 c 2.27189,1.92722 3.32346,5.51848 4.23803,9.49558 0.91456,3.97709 1.65394,8.27598 4.34414,11.30342 l 0.003,0.004 0.004,0.003 c 5.27389,5.85727 7.0016,9.84016 6.85164,12.44499 -0.14996,2.60483 -2.04025,4.52671 -5.42885,6.57042 -6.77721,4.08741 -18.67962,7.61485 -26.25742,16.80429 l 0.009,-0.0114 c -6.64712,7.90595 -14.75946,12.26014 -21.93146,12.8255 -7.17199,0.56537 -13.39168,-2.43144 -17.03397,-9.74571 l -0.008,-0.0152 -0.008,-0.0152 c -2.28995,-4.34904 -1.33128,-11.1213 0.56169,-18.23617 1.89297,-7.11487 4.60467,-14.41261 4.96723,-20.29492 v -0.008 l 7.6e-4,-0.008 c 0.38447,-7.59291 0.80755,-14.23432 2.08983,-19.38001 1.28227,-5.14569 3.3187,-8.67307 6.93502,-10.65078 0.1946,-0.10642 0.38266,-0.17978 0.57457,-0.27288 z m -115.378753,0.50332 c 0.46944,0.0122 0.9623,0.0563 1.48114,0.13492 4.10288,0.62172 7.65691,3.48128 11.05783,8.0925 3.40093,4.61123 6.55353,10.88664 9.79272,17.84125 l 0.003,0.008 0.004,0.008 c 2.57926,5.3861 8.06364,11.3646 12.72242,17.46679 4.658776,6.1022 8.300983,12.24193 7.826433,17.02563 l -0.002,0.0174 -0.002,0.0174 c -0.61126,8.04897 -5.190237,12.47719 -12.162243,14.0694 -6.9701,1.59178 -16.37638,0.003 -25.76622,-4.9028 -10.29856,-5.45359 -22.59128,-4.91094 -30.53714,-6.5689 -3.97293,-0.82898 -6.61932,-2.08938 -7.83932,-4.46619 -1.22,-2.37681 -1.22647,-6.45212 1.29771,-13.33185 l 0.0106,-0.0281 0.009,-0.0281 c 1.21821,-3.77144 0.31358,-7.94915 -0.29108,-11.89391 -0.60466,-3.94476 -0.91641,-7.56827 0.46466,-10.13306 l 0.006,-0.0106 0.005,-0.0106 c 1.74942,-3.37417 4.33828,-4.59311 7.48609,-5.72221 3.14781,-1.12909 6.83027,-2.00781 9.72601,-4.90355 l 0.0144,-0.0144 0.0144,-0.0144 c 2.69162,-2.8411 4.72974,-6.43278 7.13589,-9.00363 1.80461,-1.92814 3.64254,-3.29426 6.19975,-3.59144 0.4262,-0.0495 0.87224,-0.0691 1.34168,-0.0568 z" />
</svg>
