<?xml version="1.0" encoding="UTF-8" standalone="no"?>
<!-- Created with Inkscape (http://www.inkscape.org/) -->

<svg
   width="940"
   height="200"
   viewBox="0 0 248.70833 52.916667"
   version="1.1"
   id="svg5"
   xmlns:xlink="http://www.w3.org/1999/xlink"
   xmlns="http://www.w3.org/2000/svg"
   xmlns:svg="http://www.w3.org/2000/svg">
  <defs
     id="defs2">
    <linearGradient
       id="linearGradient172">
      <stop
         style="stop-color:#3f2600;stop-opacity:0.6;"
         offset="0"
         id="stop173" />
      <stop
         style="stop-color:#3f2600;stop-opacity:0;"
         offset="1"
         id="stop174" />
    </linearGradient>
    <linearGradient
       id="linearGradient167">
      <stop
         style="stop-color:#ffffff;stop-opacity:0.65;"
         offset="0"
         id="stop168" />
      <stop
         style="stop-color:#ffffff;stop-opacity:0;"
         offset="1"
         id="stop169" />
    </linearGradient>
    <linearGradient
       id="linearGradient162">
      <stop
         style="stop-color:#ffa63f;stop-opacity:1;"
         offset="0"
         id="stop163" />
      <stop
         style="stop-color:#ffff00;stop-opacity:1;"
         offset="1"
         id="stop164" />
    </linearGradient>
    <linearGradient
       id="linearGradient153">
      <stop
         style="stop-color:#ffeed7;stop-opacity:1;"
         offset="0"
         id="stop154" />
      <stop
         style="stop-color:#bdbfc2;stop-opacity:1;"
         offset="1"
         id="stop155" />
    </linearGradient>
    <linearGradient
       id="linearGradient138">
      <stop
         style="stop-color:#ffffff;stop-opacity:0.8;"
         offset="0"
         id="stop139" />
      <stop
         style="stop-color:#ffffff;stop-opacity:0;"
         offset="1"
         id="stop140" />
    </linearGradient>
    <linearGradient
       xlink:href="#linearGradient138"
       id="linearGradient141"
       x1="0.47424799"
       y1="0.020191999"
       x2="0.417539"
       y2="0.90125799"
       gradientUnits="objectBoundingBox" />
    <linearGradient
       xlink:href="#linearGradient167"
       id="linearGradient142"
       x1="0.55880702"
       y1="0.031192999"
       x2="0.553922"
       y2="0.94531101"
       gradientUnits="objectBoundingBox" />
    <linearGradient
       xlink:href="#linearGradient167"
       id="linearGradient143"
       x1="0.46557701"
       y1="0.028819799"
       x2="0.41365999"
       y2="0.93366498"
       gradientUnits="objectBoundingBox" />
    <linearGradient
       xlink:href="#linearGradient167"
       id="linearGradient144"
       x1="0.70346397"
       y1="0.059404202"
       x2="0.64553201"
       y2="0.94063401"
       gradientUnits="objectBoundingBox" />
    <linearGradient
       xlink:href="#linearGradient167"
       id="linearGradient145"
       x1="0.46741399"
       y1="-0.036155298"
       x2="0.86741799"
       y2="0.75857902"
       gradientUnits="objectBoundingBox" />
    <linearGradient
       xlink:href="#linearGradient167"
       id="linearGradient146"
       x1="0.57152498"
       y1="0.023441499"
       x2="0.57143003"
       y2="0.71875"
       gradientUnits="objectBoundingBox" />
    <linearGradient
       xlink:href="#linearGradient167"
       id="linearGradient147"
       x1="0.5"
       y1="0.0234362"
       x2="0.5"
       y2="0.8125"
       gradientUnits="objectBoundingBox" />
    <linearGradient
       xlink:href="#linearGradient167"
       id="linearGradient148"
       x1="0.50799799"
       y1="0.37435901"
       x2="0.51599997"
       y2="0.92820501"
       gradientUnits="objectBoundingBox" />
    <linearGradient
       xlink:href="#linearGradient138"
       id="linearGradient149"
       x1="0.5"
       y1="0.131707"
       x2="0.50400001"
       y2="0.94634098"
       gradientUnits="objectBoundingBox" />
    <linearGradient
       xlink:href="#linearGradient167"
       id="linearGradient150"
       x1="-0.30509499"
       y1="0.099496603"
       x2="0.156323"
       y2="0.94191301"
       gradientUnits="objectBoundingBox"
       gradientTransform="matrix(-0.928523,0.283938,0.435332,0.943857,-1.91327e-7,5.49908e-8)" />
    <linearGradient
       xlink:href="#linearGradient167"
       id="linearGradient151"
       x1="0.433979"
       y1="0.022184599"
       x2="0.487055"
       y2="1.02569"
       gradientUnits="objectBoundingBox" />
    <linearGradient
       xlink:href="#linearGradient153"
       id="linearGradient152"
       x1="0.5"
       y1="0.89842999"
       x2="0.5"
       y2="0.40625"
       gradientUnits="objectBoundingBox"
       spreadMethod="reflect" />
    <linearGradient
       xlink:href="#linearGradient153"
       id="linearGradient156"
       x1="0.43568701"
       y1="0.98882002"
       x2="0.453989"
       y2="0.23093501"
       gradientUnits="objectBoundingBox" />
    <linearGradient
       xlink:href="#linearGradient153"
       id="linearGradient157"
       x1="0.49180499"
       y1="1.15284"
       x2="0.49482101"
       y2="0.41252401"
       gradientUnits="objectBoundingBox" />
    <linearGradient
       xlink:href="#linearGradient153"
       id="linearGradient158"
       x1="0.51730198"
       y1="0.85418499"
       x2="0.49843901"
       y2="0.136172"
       gradientUnits="objectBoundingBox" />
    <linearGradient
       xlink:href="#linearGradient153"
       id="linearGradient159"
       x1="0.46201"
       y1="0.87917101"
       x2="0.49215299"
       y2="0.096282303"
       gradientUnits="objectBoundingBox" />
    <linearGradient
       xlink:href="#linearGradient162"
       id="linearGradient161"
       x1="0.50086302"
       y1="0.34872901"
       x2="0.41209599"
       y2="0.98558098"
       gradientUnits="objectBoundingBox" />
    <linearGradient
       xlink:href="#linearGradient162"
       id="linearGradient165"
       x1="0.60399801"
       y1="0.51020199"
       x2="0.46399999"
       y2="0.98367399"
       gradientUnits="objectBoundingBox" />
    <linearGradient
       xlink:href="#linearGradient162"
       id="linearGradient166"
       x1="0.50000501"
       y1="0.191616"
       x2="0.50800002"
       y2="0.97005898"
       gradientUnits="objectBoundingBox" />
    <radialGradient
       xlink:href="#linearGradient172"
       id="radialGradient171"
       cx="0.5"
       cy="0.5"
       fx="0.5"
       fy="0.5"
       r="0.5"
       gradientUnits="objectBoundingBox" />
    <radialGradient
       xlink:href="#linearGradient172"
       id="radialGradient176" />
    <linearGradient
       xlink:href="#linearGradient153"
       id="linearGradient178"
       x1="0.94027299"
       y1="1.2934099"
       x2="0.19452"
       y2="-0.675295"
       gradientUnits="objectBoundingBox" />
    <radialGradient
       xlink:href="#linearGradient172"
       id="radialGradient1399"
       gradientTransform="matrix(1.4818268,0,0,0.39679691,-349.5468,157.94132)"
       cx="446.77762"
       cy="1219.4125"
       fx="446.77762"
       fy="1219.4125"
       r="195.07191"
       gradientUnits="userSpaceOnUse" />
    <linearGradient
       xlink:href="#linearGradient153"
       id="linearGradient1401"
       gradientUnits="userSpaceOnUse"
       x1="400.57785"
       y1="369.53015"
       x2="400.84448"
       y2="304.07886"
       gradientTransform="matrix(-0.96493873,-0.01291555,-0.03671998,2.5569228,862.8276,-357.26968)" />
    <linearGradient
       xlink:href="#linearGradient138"
       id="linearGradient1403"
       gradientUnits="userSpaceOnUse"
       x1="303.01761"
       y1="237.93179"
       x2="297.0856"
       y2="330.09561"
       gradientTransform="matrix(1.4132361,-0.0796503,-0.04119768,1.0713842,-108.6094,-190.01368)" />
    <linearGradient
       xlink:href="#linearGradient153"
       id="linearGradient1405"
       gradientUnits="userSpaceOnUse"
       gradientTransform="matrix(1.0650795,-0.06167214,0.0944585,1.6443046,-165.9954,-241.86968)"
       x1="378.93771"
       y1="278.60202"
       x2="380.27319"
       y2="243.91606" />
    <linearGradient
       xlink:href="#linearGradient153"
       id="linearGradient1407"
       gradientUnits="userSpaceOnUse"
       x1="381.38742"
       y1="277.495"
       x2="380.5517"
       y2="245.68338"
       gradientTransform="matrix(-1.4785291,0.04042534,0.03886407,1.9024316,896.7076,-349.02968)" />
    <linearGradient
       xlink:href="#linearGradient167"
       id="linearGradient1409"
       gradientUnits="userSpaceOnUse"
       gradientTransform="matrix(-0.39218229,-0.02976458,-0.05731006,0.58249559,502.7436,22.75972)"
       x1="379.09573"
       y1="240.92712"
       x2="376.79556"
       y2="281.01636" />
    <linearGradient
       xlink:href="#linearGradient167"
       id="linearGradient1411"
       gradientUnits="userSpaceOnUse"
       x1="389.63535"
       y1="242.28218"
       x2="387.06866"
       y2="281.32513"
       gradientTransform="matrix(0.29141594,-0.03333031,0.05061034,0.48811437,138.5816,50.73832)" />
    <linearGradient
       xlink:href="#linearGradient153"
       id="linearGradient1413"
       gradientUnits="userSpaceOnUse"
       spreadMethod="reflect"
       x1="437.57941"
       y1="528.87177"
       x2="437.57941"
       y2="394.10361"
       gradientTransform="matrix(1.0160687,0,0,1.53779,-125.2984,-232.48268)" />
    <linearGradient
       xlink:href="#linearGradient153"
       id="linearGradient1415"
       gradientUnits="userSpaceOnUse"
       x1="375.17325"
       y1="419.78485"
       x2="377.48541"
       y2="324.03815"
       gradientTransform="matrix(0.9027839,-0.07217411,0.15730007,2.0039596,-202.3394,-230.19068)" />
    <linearGradient
       xlink:href="#linearGradient138"
       id="linearGradient1417"
       gradientUnits="userSpaceOnUse"
       x1="320.75104"
       y1="498.17776"
       x2="321.32224"
       y2="614.50439"
       gradientTransform="matrix(1.3994837,0,0,1.1399824,-140.7104,-217.80968)" />
    <linearGradient
       xlink:href="#linearGradient167"
       id="linearGradient1419"
       gradientUnits="userSpaceOnUse"
       x1="322.48257"
       y1="435.26761"
       x2="323.2514"
       y2="488.48251"
       gradientTransform="matrix(1.2781848,0,0,0.99078805,-100.1294,-164.33068)" />
    <linearGradient
       xlink:href="#linearGradient167"
       id="linearGradient1421"
       gradientUnits="userSpaceOnUse"
       x1="411.2215"
       y1="242.94365"
       x2="411.2215"
       y2="331.44858"
       gradientTransform="matrix(0.71463375,0,0,2.1864338,-125.2984,-231.75768)" />
    <linearGradient
       xlink:href="#linearGradient167"
       id="linearGradient1423"
       gradientUnits="userSpaceOnUse"
       x1="867.34546"
       y1="234.73897"
       x2="867.33453"
       y2="314.83911"
       gradientTransform="matrix(0.71583375,0,0,2.1827675,-125.2984,-231.75768)" />
    <linearGradient
       xlink:href="#linearGradient162"
       id="linearGradient1425"
       gradientUnits="userSpaceOnUse"
       x1="236.25362"
       y1="657.11133"
       x2="212.5099"
       y2="737.41229"
       gradientTransform="matrix(1.2643925,0,0,1.2357712,-125.2984,-231.75768)" />
    <linearGradient
       xlink:href="#linearGradient153"
       id="linearGradient1427"
       gradientUnits="userSpaceOnUse"
       x1="381.56607"
       y1="655.73102"
       x2="279.64313"
       y2="386.66583"
       gradientTransform="matrix(0.63738789,0.28617598,-0.22489266,0.57927107,389.8156,76.21132)" />
    <linearGradient
       xlink:href="#linearGradient162"
       id="linearGradient1429"
       gradientUnits="userSpaceOnUse"
       x1="218.11714"
       y1="630.30475"
       x2="203.12654"
       y2="737.8537"
       gradientTransform="matrix(-1.1800109,0.4273134,0.47064661,1.1534176,417.5906,-278.07368)" />
    <linearGradient
       xlink:href="#linearGradient167"
       id="linearGradient1431"
       gradientUnits="userSpaceOnUse"
       gradientTransform="matrix(-0.95239592,0.34640009,0.42082546,0.94872982,403.5756,-128.59468)"
       x1="117.88966"
       y1="587.23602"
       x2="182.24524"
       y2="704.73077" />
    <linearGradient
       xlink:href="#linearGradient167"
       id="linearGradient1433"
       gradientUnits="userSpaceOnUse"
       x1="223.10072"
       y1="570.41809"
       x2="230.53499"
       y2="710.97723"
       gradientTransform="matrix(1.0038119,-0.05226007,-0.01740863,1.0462687,-66.5614,-92.71798)" />
    <linearGradient
       xlink:href="#linearGradient167"
       id="linearGradient1435"
       gradientUnits="userSpaceOnUse"
       x1="316.93988"
       y1="474.01779"
       x2="371.60889"
       y2="582.63507"
       gradientTransform="matrix(0.37423628,0.15925268,-0.12093484,0.32235493,413.7696,254.03832)" />
    <linearGradient
       xlink:href="#linearGradient162"
       id="linearGradient1437"
       gradientUnits="userSpaceOnUse"
       x1="284.68652"
       y1="410.46326"
       x2="285.45923"
       y2="485.69934"
       gradientTransform="matrix(1.523355,0,0,1.0256962,-125.2984,-231.75768)" />
    <linearGradient
       xlink:href="#linearGradient167"
       id="linearGradient1439"
       gradientUnits="userSpaceOnUse"
       x1="288.82358"
       y1="398.85422"
       x2="288.37628"
       y2="482.55939"
       gradientTransform="matrix(0.76723842,0,0,0.48747518,81.6136,-12.43538)" />
  </defs>
  <path
     id="path106"
     style="fill:#ffffff;stroke:none;stroke-width:0.125335"
     d="M 22.736118,0.00687849 C 22.459475,0.01127526 22.173385,0.02502851 21.877576,0.04856822 12.531802,0.8007804 15.009842,10.673438 14.87057,13.980175 c -0.204645,2.900551 -0.866841,5.060943 -3.462378,8.161026 -0.357908,0.441527 -0.68682,0.903336 -0.992965,1.379 -2.5347381,3.567699 -5.1029784,8.418219 -4.4514278,12.671204 -0.096672,0.08446 -0.1901421,0.171986 -0.2768334,0.264615 -0.5687112,0.607638 -0.9920117,1.349124 -1.4687683,1.853858 -0.4506741,0.44918 -1.0874404,0.617507 -1.7764664,0.864654 -0.6896833,0.247385 -1.4364036,0.60732 -1.89098991,1.482713 -0.41024003,0.764537 -0.28976174,1.653189 -0.16246453,2.483667 0.12745001,0.83148 0.26014991,1.622957 0.0831913,2.170803 -0.54452939,1.488718 -0.61053357,2.511199 -0.23343554,3.245858 0.37812691,0.736677 1.15751818,1.064183 2.04985158,1.250376 1.7846673,0.372384 4.2197903,0.277835 6.1462705,1.297998 l 8.591e-4,4.15e-4 6.198e-4,4.12e-4 c 2.0428806,1.067791 4.1122266,1.445151 5.7567886,1.069577 1.197445,-0.273465 2.162351,-0.985985 2.655376,-2.084006 1.305557,0.0048 2.73088,-0.538738 5.029848,-0.664588 1.551009,-0.125712 3.496631,0.534823 5.728433,0.403892 0.05791,0.249236 0.143001,0.488439 0.261793,0.714568 0.853808,1.710638 2.435952,2.489261 4.128689,2.355823 1.694134,-0.13354 3.501306,-1.133538 4.963265,-2.872362 l 9.71e-4,-9.71e-4 9.71e-4,-9.7e-4 c 1.408024,-1.707479 3.736307,-2.412017 5.267202,-3.335321 0.765446,-0.461652 1.376535,-1.032074 1.424117,-1.858561 0.04756,-0.82611 -0.439582,-1.764709 -1.574833,-3.025897 -0.38606,-0.434563 -0.563562,-1.225566 -0.755578,-2.060574 C 41.130761,38.9128 40.916394,38.020987 40.242287,37.448427 39.949214,37.192741 39.644316,37.028038 39.337841,36.921235 41.112812,31.720151 38.359034,26.569277 35.732582,23.035851 33.618335,19.957819 30.737324,17.606717 30.780911,13.582462 30.833653,8.7922711 31.312331,-0.12672384 22.736286,0.00712249 Z M 24.194862,7.346022 a 3.3813582,2.628098 89.433792 0 1 2.516883,3.306023 3.3813582,2.628098 89.433792 0 1 -0.847423,2.527535 c -0.05359,-0.02512 -0.106956,-0.05034 -0.164029,-0.07379 -0.481836,-0.206231 -0.831661,-0.32863 -1.137099,-0.434443 a 1.1939806,1.8563248 2.00318 0 0 0.48489,-1.448398 1.1939806,1.8563248 2.00318 0 0 -1.236432,-1.8549564 1.1939806,1.8563248 2.00318 0 0 -1.152296,1.8497864 1.1939806,1.8563248 2.00318 0 0 0.06877,0.558838 C 22.299164,11.559656 21.895273,11.41124 21.516453,11.319143 a 3.3813582,2.628098 89.433792 0 1 -0.05923,-0.52343 3.3813582,2.628098 89.433792 0 1 2.73763,-3.4496873 z m -6.56567,0.5116803 a 2.9266678,1.8957644 86.731112 0 1 1.93094,2.8143977 2.9266678,1.8957644 86.731112 0 1 -0.02851,0.667877 c -0.0522,0.01522 -0.105766,0.029 -0.156201,0.04637 -0.349848,0.120505 -0.654409,0.287095 -0.920586,0.46562 a 1.5436106,0.86836572 85.064337 0 0 0.02319,-0.623386 1.5436106,0.86836572 85.064337 0 0 -0.898337,-1.4325777 1.5436106,0.86836572 85.064337 0 0 -0.826429,1.6423577 1.5436106,0.86836572 85.064337 0 0 0.655346,1.305209 c -0.0083,0.0081 -0.02129,0.02077 -0.0293,0.02836 0.0027,-0.0025 -0.128354,0.09861 -0.357205,0.266022 -0.05657,0.04138 -0.193032,0.143367 -0.2643,0.19569 A 2.9266678,1.8957644 86.731112 0 1 15.774864,10.891279 2.9266678,1.8957644 86.731112 0 1 17.629192,7.8577023 Z M 20.48197,11.56652 c 0.05194,-9.71e-4 0.104628,-8.58e-4 0.15807,6.2e-4 0.712759,0.0198 1.561999,0.26902 2.578452,0.922463 0.651938,0.42395 1.16203,0.460068 2.335933,0.962729 l 0.0012,4.14e-4 0.0012,6.19e-4 c 0.565294,0.232281 0.898853,0.535741 1.062212,0.856978 0.16335,0.321239 0.167238,0.670334 0.03102,1.035738 -0.272428,0.730804 -1.139314,1.495667 -2.355669,1.875635 l -9.71e-4,4.14e-4 -9.7e-4,4.13e-4 c -0.588958,0.191009 -1.10526,0.614673 -1.714897,0.962886 -0.609601,0.348196 -1.301067,0.62987 -2.23989,0.576386 -0.799298,-0.04666 -1.278373,-0.319127 -1.709885,-0.666468 -0.431504,-0.34734 -0.806196,-0.781906 -1.354079,-1.103418 l -0.0015,-8.6e-4 -0.0012,-8.6e-4 c -0.887764,-0.500981 -1.373864,-1.081202 -1.5269,-1.586987 -0.153038,-0.505789 -0.0083,-0.940623 0.434283,-1.272622 0.493863,-0.370367 0.836935,-0.621789 1.065505,-0.788982 0.22857,-0.167182 0.324467,-0.230983 0.393709,-0.296573 0.370264,-0.350735 0.964008,-0.994533 1.85997,-1.30317 0.293986,-0.101273 0.62063,-0.168116 0.984192,-0.175322 z m 5.170694,3.113475 c -0.290307,0.01705 -0.617114,0.173232 -0.999077,0.386346 -0.381962,0.213119 -0.815024,0.487943 -1.28578,0.759529 -0.94151,0.543172 -2.031778,1.068952 -3.128829,1.068952 -1.098122,0 -1.974113,-0.506788 -2.62561,-1.022265 -0.325749,-0.257738 -0.593724,-0.516598 -0.805433,-0.714565 -0.105856,-0.09898 -0.197181,-0.182637 -0.278872,-0.245499 -0.08169,-0.06287 -0.147572,-0.116105 -0.253958,-0.116105 v 0.250669 c -0.01896,0 0.03359,0.0121 0.101049,0.06408 0.06746,0.05192 0.156005,0.132256 0.260541,0.229992 0.209074,0.195505 0.483946,0.461149 0.821256,0.728037 0.674623,0.533776 1.605778,1.076313 2.781027,1.076313 1.176321,0 2.301058,-0.552704 3.254006,-1.102474 0.476478,-0.274887 0.910471,-0.550148 1.282648,-0.757807 0.372179,-0.207657 0.686592,-0.342951 0.891758,-0.355012 z m 1.059237,1.342807 c 0.791432,3.144056 2.648136,7.694312 3.84449,9.916032 0.632356,1.174371 1.881386,3.671998 2.421787,6.679255 0.01687,-6.2e-4 0.03331,-0.0022 0.05045,-0.0027 0.354005,-0.0068 0.745072,0.05135 1.162639,0.163112 -0.02211,-0.006 -0.04477,-0.01302 -0.06674,-0.01856 1.42257,-3.689869 -1.204155,-7.663918 -2.406743,-8.770941 -0.453327,-0.4396 -0.504378,-0.653015 -0.313964,-0.671794 0.02721,-0.0027 0.05929,-0.0015 0.09588,0.0037 0.01559,0.0022 0.03688,0.0095 0.05403,0.0132 1.916422,1.727765 4.615535,5.841233 3.634243,9.791948 -0.09515,-0.04022 -0.189255,-0.07808 -0.282473,-0.113886 0.22099,0.08481 0.447131,0.181225 0.678373,0.29062 2.303553,1.121952 3.123941,2.102858 2.695174,3.440446 -0.122668,-0.0035 -0.244201,-0.0046 -0.362689,-0.0016 -0.01778,4.12e-4 -0.0341,0.0012 -0.05168,0.0016 0.01448,-0.04288 0.02737,-0.08557 0.03839,-0.127527 2.7e-5,-1.05e-4 -2.8e-5,-2.04e-4 0,-4.13e-4 0.262385,-1.002076 -0.480776,-1.75496 -2.379955,-2.615114 -2.024903,-0.890744 -3.639463,-0.801074 -3.913114,1.004715 -0.02022,0.110276 -0.03555,0.223191 -0.04668,0.337622 -0.143569,0.05099 -0.287705,0.11066 -0.432561,0.189875 -0.93986,0.513996 -1.453394,1.44663 -1.740748,2.599762 -0.28713,1.152236 -0.37003,2.550133 -0.449638,4.121951 -0.04836,0.784684 -0.363774,1.831989 -0.68762,2.941768 -3.355321,2.418546 -8.045788,3.46726 -12.005205,0.679002 -0.245321,-0.377889 -0.516818,-0.753389 -0.799825,-1.124078 -0.224707,-0.294328 -0.456473,-0.585647 -0.685737,-0.873114 0.160109,0.0037 0.313495,1.95e-4 0.453713,-0.01632 0.02514,-0.0031 0.04819,-0.0079 0.0727,-0.01137 0.142614,-0.02085 0.275781,-0.0506 0.39606,-0.0918 0.0224,-0.0077 0.04277,-0.01705 0.06439,-0.02554 0.114758,-0.04439 0.219689,-0.09713 0.311769,-0.159958 0.01751,-0.01192 0.0333,-0.02519 0.04998,-0.03777 0.08762,-0.06617 0.164748,-0.140122 0.228893,-0.223255 0.01219,-0.01595 0.02297,-0.03251 0.0343,-0.04888 0.05963,-0.08626 0.108043,-0.180069 0.143351,-0.281845 0.0066,-0.01918 0.01223,-0.03892 0.01802,-0.05859 0.03076,-0.104958 0.04959,-0.216942 0.05499,-0.336056 9.71e-4,-0.02167 0.0012,-0.04369 0.0015,-0.0658 6.2e-4,-0.122962 -0.01168,-0.252613 -0.03776,-0.388539 -0.0042,-0.02211 -0.0087,-0.04432 -0.01364,-0.06676 -0.0309,-0.139608 -0.07613,-0.285461 -0.135363,-0.43679 -0.0092,-0.02356 -0.0183,-0.04699 -0.0282,-0.07081 -0.06452,-0.154935 -0.144323,-0.315621 -0.238764,-0.480975 -0.01291,-0.02263 -0.02522,-0.04505 -0.0387,-0.06784 -0.100469,-0.169821 -0.217523,-0.344754 -0.349999,-0.523744 -0.01545,-0.02086 -0.03002,-0.04152 -0.04591,-0.06251 -0.138337,-0.182691 -0.294594,-0.369982 -0.466873,-0.560403 -0.01784,-0.0198 -0.03458,-0.03912 -0.05279,-0.05891 -0.178952,-0.194515 -0.376788,-0.392713 -0.591892,-0.593462 -0.01762,-0.0165 -0.03385,-0.03273 -0.0517,-0.04919 -0.223488,-0.206148 -0.466953,-0.415055 -0.729446,-0.625894 -0.01463,-0.01173 -0.02805,-0.02334 -0.04276,-0.03509 -0.270969,-0.216049 -0.563307,-0.433992 -0.876248,-0.652997 -0.01045,-0.0072 -0.02002,-0.01467 -0.03054,-0.02195 -0.324285,-0.225982 -0.670479,-0.453067 -1.0406,-0.680104 -5.3969534,-3.359087 -1.762826,-9.673682 0.08836,-12.706922 0.119805,-0.133871 0.21222,-0.218256 0.258032,-0.223255 0.128914,-0.01411 -0.08944,0.562489 -0.960849,2.181924 -0.883225,1.671701 -2.5294976,5.531042 -0.255526,8.537659 0.05771,-2.142878 0.559917,-4.328071 1.419104,-6.372181 1.252036,-2.838735 3.864994,-7.762923 4.060224,-11.677931 0.193908,0.150169 0.411875,0.295536 0.656601,0.43366 l -0.0028,-0.0016 c 0.482772,0.283303 0.843351,0.697421 1.308812,1.072085 0.465458,0.374664 1.045146,0.69758 1.923731,0.748876 h 1.59e-4 c 1.025641,0.05847 1.806567,-0.258918 2.447946,-0.625266 0.641382,-0.366344 1.154669,-0.77288 1.644394,-0.931707 1.028718,-0.321752 1.842878,-0.893398 2.303345,-1.557288 z m 7.54798,16.774829 c 0.190451,0.05333 0.386246,0.117829 0.587038,0.193176 -0.200825,-0.07542 -0.396556,-0.139792 -0.587038,-0.193176 z m -2.709739,3.228471 c 0.07493,1.370795 0.748345,2.778292 1.948174,3.081048 1.319452,0.346373 3.228588,-0.805481 4.001475,-1.722575 0.146172,-0.006 0.291798,-0.01302 0.431778,-0.0165 0.697466,-0.01687 1.294964,0.02429 1.900703,0.553982 l 0.0016,0.0015 0.0018,0.0016 c 0.469566,0.398327 0.686908,1.140583 0.875934,1.962588 0.189028,0.822005 0.341846,1.710517 0.897867,2.336244 l 6.22e-4,8.59e-4 8.58e-4,6.19e-4 c 1.090032,1.210608 1.447123,2.033809 1.416128,2.572188 -0.031,0.538377 -0.421687,0.935601 -1.122059,1.358003 -1.400744,0.844807 -3.860789,1.573875 -5.427004,3.473187 l 0.0018,-0.0022 c -1.373858,1.634038 -3.050554,2.533982 -4.532897,2.650833 -1.48234,0.116858 -2.767851,-0.502541 -3.520657,-2.014287 l -0.0016,-0.0031 -0.0016,-0.0031 c -0.473299,-0.898877 -0.275157,-2.298599 0.116105,-3.769133 0.391248,-1.470533 0.951716,-2.978864 1.026651,-4.194647 v -0.0016 l 1.59e-4,-0.0016 c 0.07947,-1.569339 0.166906,-2.942016 0.431935,-4.005551 0.265023,-1.063534 0.685924,-1.792587 1.433361,-2.201351 0.04022,-0.022 0.07909,-0.03715 0.118763,-0.05641 z M 7.7031366,36.130144 c 0.097031,0.0024 0.1988933,0.01155 0.3061288,0.02788 0.8480027,0.128499 1.5825652,0.719526 2.2854826,1.672595 0.70292,0.953068 1.354513,2.250098 2.024004,3.687509 l 6.19e-4,0.0016 8.61e-4,0.0016 c 0.533092,1.113223 1.666629,2.348888 2.629527,3.610116 0.962897,1.261229 1.715686,2.530218 1.617603,3.518935 l -4.14e-4,0.0035 -4.12e-4,0.0035 c -0.126338,1.663818 -1.072742,2.579066 -2.513748,2.908149 -1.440612,0.328996 -3.384746,6.2e-4 -5.3254802,-1.013334 C 6.5987216,49.425095 4.0580061,49.537251 2.4157198,49.194577 1.5945764,49.023239 1.0476083,48.762734 0.79545362,48.271483 0.54329817,47.780234 0.54196079,46.937931 1.0636699,45.515996 l 0.00219,-0.0057 0.00188,-0.0057 c 0.251784,-0.779514 0.064813,-1.64298 -0.060167,-2.458299 -0.12497404,-0.815323 -0.18940804,-1.564246 0.096039,-2.094348 l 0.00125,-0.0022 0.00102,-0.0022 c 0.3615652,-0.697447 0.8966425,-0.949382 1.5472463,-1.18275 0.6506042,-0.233365 1.4117115,-0.414983 2.0102166,-1.013488 l 0.00297,-0.0031 0.00297,-0.0031 c 0.5563164,-0.587212 0.977564,-1.329557 1.4748777,-1.860912 0.3729844,-0.398517 0.7528576,-0.680874 1.2813939,-0.742297 0.088092,-0.01027 0.1802774,-0.0143 0.2773039,-0.01173 z" />
  <g
     id="g992"
     transform="matrix(1.379287,0,0,1.379287,-15.870813,-10.948091)">
    <path
       style="color:#000000;fill:#ffffff;stroke-linecap:round;-inkscape-stroke:none"
       d="M 55.5625,7.9375 A 1.3229166,1.3229166 0 0 0 54.240234,9.2597656 V 44.978516 a 1.3229166,1.3229166 0 0 0 1.322266,1.324218 1.3229166,1.3229166 0 0 0 1.322266,-1.324218 V 9.2597656 A 1.3229166,1.3229166 0 0 0 55.5625,7.9375 Z"
       id="path929" />
    <path
       style="color:#000000;fill:#ffffff;stroke-linecap:round;-inkscape-stroke:none"
       d="m 71.4375,19.84375 a 1.3229166,1.3229166 0 0 0 -1.322266,1.322266 v 23.8125 a 1.3229166,1.3229166 0 0 0 1.322266,1.324218 1.3229166,1.3229166 0 0 0 1.322266,-1.324218 v -23.8125 A 1.3229166,1.3229166 0 0 0 71.4375,19.84375 Z"
       id="path1110" />
    <circle
       style="fill:#ffffff;stroke:none;stroke-width:2.64583;stroke-linecap:round;stroke-miterlimit:4;stroke-dasharray:none"
       id="path1167"
       cx="71.4375"
       cy="9.260417"
       r="1.3229166" />
    <path
       id="path1315"
       style="color:#000000;fill:#ffffff;stroke-width:1;stroke-linecap:round;-inkscape-stroke:none"
       d="m 99.218749,19.84375 c -7.290589,0 -13.228651,5.93806 -13.228651,13.22865 V 44.97865 A 1.3229166,1.3229166 0 0 0 87.312499,46.302599 1.3229166,1.3229166 0 0 0 88.6349,44.97865 V 33.0724 c 0,-5.860679 4.723172,-10.5823 10.583849,-10.5823 5.860681,0 10.583851,4.721621 10.583851,10.5823 v 11.90625 a 1.322915,1.322915 0 0 0 1.3224,1.323949 1.322915,1.322915 0 0 0 1.3224,-1.323949 V 33.0724 c 0,-7.29059 -5.93806,-13.22865 -13.228651,-13.22865 z" />
    <path
       id="path1742"
       style="color:#000000;fill:#ffffff;stroke-width:1;stroke-linecap:round;-inkscape-stroke:none"
       d="m 138.90574,46.30234 c 7.29059,0 13.22865,-5.93806 13.22865,-13.228647 v -11.90625 a 1.3229166,1.3229166 0 0 0 -1.3224,-1.323949 1.3229166,1.3229166 0 0 0 -1.3224,1.323949 v 11.90625 c 0,5.860677 -4.72318,10.582297 -10.58385,10.582297 -5.86068,0 -10.58385,-4.72162 -10.58385,-10.582297 v -11.90625 a 1.322915,1.322915 0 0 0 -1.3224,-1.323949 1.322915,1.322915 0 0 0 -1.32241,1.323949 v 11.90625 c 0,7.290587 5.93806,13.228647 13.22866,13.228647 z" />
    <path
       style="color:#000000;fill:#ffffff;stroke-linecap:round;-inkscape-stroke:none"
       d="m 166.6875,19.84375 a 1.3229166,1.3229166 0 0 0 -0.93555,0.386719 1.3229166,1.3229166 0 0 0 0,1.871093 l 23.8125,23.8125 a 1.3229166,1.3229166 0 0 0 1.8711,0 1.3229166,1.3229166 0 0 0 0,-1.871093 l -23.8125,-23.8125 A 1.3229166,1.3229166 0 0 0 166.6875,19.84375 Z"
       id="path1777" />
    <path
       style="color:#000000;fill:#ffffff;stroke-linecap:round;-inkscape-stroke:none"
       d="m 189.56445,20.230469 -23.8125,23.8125 a 1.322915,1.322915 0 0 0 0,1.871093 1.322915,1.322915 0 0 0 1.8711,0 l 23.8125,-23.8125 a 1.322915,1.322915 0 0 0 0,-1.871093 1.322915,1.322915 0 0 0 -1.8711,0 z"
       id="path1925" />
  </g>
</svg>
